#!OML:ASF Y:\EmotionMaleHayes\Project 1\Capture day 1\Session 1\Male1.ASF
:FULLY-SPECIFIED
:DEGREES
212
root -28.9654 17.0658 1.68562 46.2736 82.0107 46.6081
lowerback 2.73898 1.80844 -7.87682
upperback 0.930382 2.23308 -1.87313
thorax -0.79689 1.13909 2.39433
lowerneck -21.6812 2.52127 4.50408
upperneck 22.2163 2.82876 -2.6475
head 10.8612 1.38725 -1.25715
rclavicle -8.03835e-015 3.97569e-016
rhumerus -33.2853 11.2425 -93.8772
rradius 29.7533
rwrist 4.11056
rhand -8.70661 -31.8998
rfingers 7.12502
rthumb 17.2288 -61.156
lclavicle -8.03835e-015 3.97569e-016
lhumerus -30.7526 -12.8149 92.8956
lradius 22.0783
lwrist -14.3071
lhand -13.8172 -25.1804
lfingers 7.12502
lthumb 12.3053 4.4375
rfemur 9.12502 -1.57595 2.30793
rtibia 1.14596
rfoot -13.4686 -0.795062
rtoes 3.53891
lfemur 12.6025 -0.501367 -19.17
ltibia -3.65393
lfoot -11.0916 16.0027
ltoes -13.8696
213
root -28.9657 17.0644 1.6865 46.6534 81.9522 46.9841
lowerback 2.72976 1.80906 -7.98234
upperback 0.934759 2.23289 -1.87858
thorax -0.790683 1.13897 2.44751
lowerneck -21.6741 2.52265 4.52888
upperneck 22.2118 2.83631 -2.69884
head 10.8597 1.38636 -1.27876
rclavicle 1.03368e-014 -2.98177e-015
rhumerus -33.3083 11.2081 -93.8398
rradius 29.7948
rwrist 4.19401
rhand -8.72093 -31.916
rfingers 7.12502
rthumb 17.2151 -61.1735
lclavicle 1.03368e-014 -2.98177e-015
lhumerus -30.7385 -12.7941 92.9282
lradius 22.1029
lwrist -14.2337
lhand -13.3981 -25.0384
lfingers 7.12502
lthumb 12.7095 4.55482
rfemur 9.12485 -1.49692 2.22777
rtibia 1.12411
rfoot -13.5078 -0.837823
rtoes 5.71228
lfemur 12.7046 -0.895438 -19.4038
ltibia -3.88261
lfoot -11.1755 16.3942
ltoes -13.7975
214
root -28.9665 17.0632 1.68907 46.5106 81.9527 46.9018
lowerback 2.78492 1.79771 -7.97328
upperback 0.966384 2.21497 -1.89615
thorax -0.785939 1.12944 2.42399
lowerneck -21.6487 2.55192 4.52699
upperneck 22.1593 2.86175 -2.64202
head 10.8357 1.40456 -1.25385
rclavicle -1.76421e-015 -5.1684e-015
rhumerus -33.2814 11.2146 -93.8844
rradius 29.8028
rwrist 4.20033
rhand -8.80709 -31.8597
rfingers 7.12502
rthumb 17.1321 -61.1244
lclavicle -1.76421e-015 -5.1684e-015
lhumerus -30.7463 -12.8279 92.8905
lradius 22.1682
lwrist -14.1413
lhand -13.1032 -24.9837
lfingers 7.12502
lthumb 12.9937 4.59167
rfemur 9.19365 -1.31563 2.29629
rtibia 1.09211
rfoot -13.6001 -1.00828
rtoes 5.65612
lfemur 12.888 -1.33118 -19.5323
ltibia -4.12029
lfoot -11.301 16.8253
ltoes -12.4819
215
root -28.9676 17.0634 1.69132 46.52 81.9391 46.9574
lowerback 2.87807 1.80571 -8.09151
upperback 0.959489 2.21197 -1.84266
thorax -0.851375 1.13009 2.54152
lowerneck -21.526 2.54511 4.50272
upperneck 22.0674 2.88339 -2.71398
head 10.7804 1.40383 -1.27308
rclavicle 2.18663e-014 -2.08724e-014
rhumerus -33.2923 11.2899 -93.8226
rradius 29.7798
rwrist 4.11286
rhand -8.84897 -31.7339
rfingers 7.12502
rthumb 17.0918 -61.0021
lclavicle 2.18663e-014 -2.08724e-014
lhumerus -30.7789 -12.7117 92.941
lradius 22.1599
lwrist -14.25
lhand -13.5794 -25.0493
lfingers 7.12502
lthumb 12.5346 4.55468
rfemur 9.2482 -1.19438 2.31374
rtibia 1.06141
rfoot -13.6806 -1.12408
rtoes 5.76757
lfemur 12.885 -1.08946 -19.4386
ltibia -4.01986
lfoot -11.317 16.5889
ltoes -11.5533
216
root -28.9663 17.0637 1.69133 46.8374 81.8764 47.2658
lowerback 2.85734 1.80693 -8.16505
upperback 0.953849 2.21402 -1.87145
thorax -0.847219 1.13152 2.55296
lowerneck -21.3908 2.53774 4.62721
upperneck 21.9638 2.87905 -2.88014
head 10.7215 1.39223 -1.35504
rclavicle -9.79014e-015 1.43125e-014
rhumerus -33.3014 11.3091 -93.8439
rradius 29.7806
rwrist 4.11584
rhand -8.85124 -31.7476
rfingers 7.12502
rthumb 17.0896 -61.016
lclavicle -9.79014e-015 1.43125e-014
lhumerus -30.7569 -12.6235 92.9109
lradius 22.074
lwrist -14.3529
lhand -14.0071 -25.1297
lfingers 7.12502
lthumb 12.1222 4.49915
rfemur 9.24416 -1.34944 2.16042
rtibia 1.05659
rfoot -13.6263 -0.984369
rtoes 5.73428
lfemur 12.8261 -0.798236 -19.4261
ltibia -3.91194
lfoot -11.2281 16.3135
ltoes -12.0221
217
root -28.9648 17.0627 1.69015 47.0041 81.8509 47.4041
lowerback 2.80591 1.82124 -8.21803
upperback 0.968794 2.23808 -1.85901
thorax -0.80776 1.14177 2.59608
lowerneck -21.451 2.5369 4.62553
upperneck 21.9719 2.87859 -2.89408
head 10.7359 1.38933 -1.35957
rclavicle -7.35503e-015 4.07509e-014
rhumerus -33.2867 11.287 -93.7778
rradius 29.7919
rwrist 4.17144
rhand -8.85186 -31.8703
rfingers 7.12502
rthumb 17.089 -61.1387
lclavicle -7.35503e-015 4.07509e-014
lhumerus -30.6832 -12.6531 92.971
lradius 22.0018
lwrist -14.3513
lhand -14.0718 -25.1207
lfingers 7.12502
lthumb 12.0599 4.51181
rfemur 9.18577 -1.54761 2.06024
rtibia 1.12755
rfoot -13.562 -0.790772
rtoes 5.40933
lfemur 12.8382 -0.901198 -19.5158
ltibia -4.00214
lfoot -11.2146 16.4181
ltoes -12.28
218
root -28.9644 17.0626 1.68915 46.6698 81.911 47.0233
lowerback 2.76699 1.82672 -8.12605
upperback 0.973491 2.25145 -1.83625
thorax -0.780133 1.14693 2.5695
lowerneck -21.5541 2.52602 4.53486
upperneck 22.0275 2.85747 -2.77235
head 10.7713 1.38646 -1.30336
rclavicle -5.14355e-015 -3.02153e-014
rhumerus -33.2834 11.2941 -93.7696
rradius 29.8478
rwrist 4.16955
rhand -8.79549 -32.1934
rfingers 7.12502
rthumb 17.1433 -61.4571
lclavicle -5.14355e-015 -3.02153e-014
lhumerus -30.6151 -12.8855 93.065
lradius 21.981
lwrist -14.0767
lhand -14.0559 -24.9753
lfingers 7.12502
lthumb 12.0752 4.65632
rfemur 9.10171 -1.5124 2.18358
rtibia 1.19604
rfoot -13.5908 -0.818454
rtoes 5.59973
lfemur 12.8905 -1.31397 -19.5807
ltibia -4.21972
lfoot -11.2732 16.8749
ltoes -12.0761
219
root -28.9648 17.0646 1.68994 46.2549 81.9964 46.5984
lowerback 2.77481 1.81463 -8.01247
upperback 0.976693 2.23707 -1.81795
thorax -0.776423 1.13918 2.52596
lowerneck -21.5887 2.51222 4.55173
upperneck 22.0558 2.83552 -2.78759
head 10.7878 1.37583 -1.31499
rclavicle -2.53326e-014 6.75868e-015
rhumerus -33.2908 11.3892 -93.8309
rradius 29.9091
rwrist 4.10593
rhand -8.75448 -32.3554
rfingers 7.12502
rthumb 17.1828 -61.6156
lclavicle -2.53326e-014 6.75868e-015
lhumerus -30.5549 -13.1187 93.133
lradius 21.9209
lwrist -13.7555
lhand -14.1236 -24.8823
lfingers 7.12502
lthumb 12.0099 4.75313
rfemur 9.11774 -1.34268 2.38287
rtibia 1.14022
rfoot -13.6222 -1.03969
rtoes 5.61379
lfemur 12.9217 -1.6721 -19.5861
ltibia -4.29504
lfoot -11.4395 17.2264
ltoes -11.6541
220
root -28.9648 17.0651 1.69063 46.1933 82.0025 46.5574
lowerback 2.80433 1.81682 -7.99099
upperback 0.983163 2.23819 -1.83374
thorax -0.784968 1.14005 2.49686
lowerneck -21.6105 2.499 4.60032
upperneck 22.0661 2.80602 -2.81232
head 10.7957 1.36324 -1.33654
rclavicle -1.61513e-016 7.35503e-015
rhumerus -33.2934 11.4237 -93.8775
rradius 29.8967
rwrist 4.1075
rhand -8.8025 -32.2609
rfingers 7.12502
rthumb 17.1365 -61.5252
lclavicle -1.61513e-016 7.35503e-015
lhumerus -30.507 -13.152 93.1158
lradius 21.8195
lwrist -13.777
lhand -14.2715 -24.9273
lfingers 7.12502
lthumb 11.8673 4.71639
rfemur 9.16335 -1.71836 2.25822
rtibia 1.11477
rfoot -13.4555 -0.68641
rtoes 5.39744
lfemur 12.8769 -1.46808 -19.4978
ltibia -4.17289
lfoot -11.4804 16.999
ltoes -11.4845
221
root -28.9633 17.0643 1.69019 46.0989 81.9662 46.4895
lowerback 2.81378 1.84121 -7.9923
upperback 1.00174 2.27126 -1.85092
thorax -0.773692 1.15596 2.47847
lowerneck -21.6589 2.48123 4.5828
upperneck 22.0749 2.77372 -2.7731
head 10.8057 1.35138 -1.32425
rclavicle -1.51822e-014 -1.27222e-014
rhumerus -33.2904 11.3573 -93.8698
rradius 29.9097
rwrist 4.18329
rhand -8.82281 -32.2846
rfingers 7.12502
rthumb 17.117 -61.5506
lclavicle -1.51822e-014 -1.27222e-014
lhumerus -30.4552 -13.0983 93.0909
lradius 21.7541
lwrist -13.8835
lhand -14.2873 -25.0113
lfingers 7.12502
lthumb 11.8521 4.63333
rfemur 9.18462 -2.15161 2.06758
rtibia 1.14978
rfoot -13.2768 -0.20377
rtoes 5.42933
lfemur 12.8643 -1.08451 -19.3873
ltibia -4.09584
lfoot -11.3441 16.6823
ltoes -11.8254
222
root -28.96 17.0649 1.68811 45.8197 81.9515 46.2322
lowerback 2.79494 1.85108 -7.94409
upperback 1.028 2.28937 -1.85562
thorax -0.735782 1.16314 2.44735
lowerneck -21.6586 2.48614 4.65407
upperneck 22.0508 2.78599 -2.88809
head 10.8002 1.34822 -1.37578
rclavicle 1.31322e-014 -2.16675e-014
rhumerus -33.2496 11.3469 -93.87
rradius 29.8968
rwrist 4.22045
rhand -8.8638 -32.3403
rfingers 7.12502
rthumb 17.0775 -61.6097
lclavicle 1.31322e-014 -2.16675e-014
lhumerus -30.4334 -13.0633 93.0824
lradius 21.7678
lwrist -13.8547
lhand -14.2521 -25.0615
lfingers 7.12502
lthumb 11.886 4.58116
rfemur 9.19558 -2.15887 2.06947
rtibia 1.12741
rfoot -13.2853 -0.171451
rtoes 5.50797
lfemur 12.9361 -1.13443 -19.3993
ltibia -4.12852
lfoot -11.4693 16.7361
ltoes -11.3018
223
root -28.958 17.0652 1.68781 45.2914 82.004 45.683
lowerback 2.76765 1.85566 -7.83857
upperback 1.03003 2.30057 -1.84829
thorax -0.715981 1.16776 2.397
lowerneck -21.6413 2.49995 4.71169
upperneck 22.0123 2.78898 -2.90328
head 10.7842 1.3523 -1.39033
rclavicle 2.28354e-014 -6.52014e-014
rhumerus -33.1441 11.3123 -93.8881
rradius 29.7204
rwrist 4.25719
rhand -8.92958 -32.1875
rfingers 7.12502
rthumb 17.0142 -61.4624
lclavicle 2.28354e-014 -6.52014e-014
lhumerus -30.4456 -13.0938 93.0656
lradius 21.8108
lwrist -13.8071
lhand -13.8772 -25.1424
lfingers 7.12502
lthumb 12.2475 4.479
rfemur 9.18543 -2.20002 2.16262
rtibia 1.08104
rfoot -13.2918 -0.104736
rtoes 6.0331
lfemur 12.9629 -1.21886 -19.3234
ltibia -4.17544
lfoot -11.5244 16.7932
ltoes -11.0586
224
root -28.9571 17.0635 1.68963 45.0485 81.9969 45.365
lowerback 2.68644 1.86946 -7.83183
upperback 1.01633 2.32621 -1.85143
thorax -0.686833 1.17979 2.39144
lowerneck -21.6679 2.50244 4.65556
upperneck 21.9997 2.7674 -2.74755
head 10.7803 1.35673 -1.32777
rclavicle -3.37934e-015 -1.03368e-014
rhumerus -33.024 11.2149 -93.8763
rradius 29.5094
rwrist 4.34601
rhand -8.98648 -31.9112
rfingers 7.12502
rthumb 16.9595 -61.1908
lclavicle -3.37934e-015 -1.03368e-014
lhumerus -30.4177 -13.0852 93.026
lradius 21.8089
lwrist -13.8384
lhand -13.5004 -25.274
lfingers 7.12502
lthumb 12.6108 4.32535
rfemur 9.11719 -1.76461 2.34908
rtibia 1.06891
rfoot -13.4045 -0.47654
rtoes 6.25578
lfemur 12.9826 -1.61975 -19.4434
ltibia -4.35571
lfoot -11.4703 17.2534
ltoes -12.0021
225
root -28.9554 17.0628 1.68989 45.1974 81.9134 45.4704
lowerback 2.60544 1.87912 -7.91577
upperback 1.02985 2.34667 -1.8689
thorax -0.631777 1.18807 2.42215
lowerneck -21.7261 2.514 4.6479
upperneck 22.0196 2.77981 -2.73452
head 10.7987 1.36278 -1.31958
rclavicle -1.32689e-014 7.95139e-015
rhumerus -32.9669 11.2651 -93.8841
rradius 29.4634
rwrist 4.31035
rhand -9.04654 -31.8435
rfingers 7.12502
rthumb 16.9016 -61.1281
lclavicle -1.32689e-014 7.95139e-015
lhumerus -30.3216 -12.9775 92.9657
lradius 21.7663
lwrist -13.9286
lhand -13.4966 -25.2816
lfingers 7.12502
lthumb 12.6144 4.31751
rfemur 9.05697 -1.30326 2.41636
rtibia 1.0748
rfoot -13.5131 -0.874385
rtoes 6.36472
lfemur 12.9064 -1.62922 -19.5423
ltibia -4.28691
lfoot -11.4584 17.3299
ltoes -12.9086
